<?xml version="1.0" standalone="no"?>
<!DOCTYPE svg PUBLIC "-//W3C//DTD SVG 20010904//EN"
 "http://www.w3.org/TR/2001/REC-SVG-20010904/DTD/svg10.dtd">
<svg version="1.0" xmlns="http://www.w3.org/2000/svg"
 width="180.000000pt" height="165.000000pt" viewBox="0 0 180.000000 165.000000"
 preserveAspectRatio="xMidYMid meet">

<g transform="translate(0.000000,165.000000) scale(0.100000,-0.100000)"
fill="#000000" stroke="none">
<path d="M433 1297 c3 -10 2 -17 -3 -17 -6 0 -10 5 -10 12 0 6 -3 9 -6 6 -3
-4 2 -20 11 -38 15 -30 71 -64 87 -54 16 10 7 50 -13 62 -21 13 -21 13 -5 -9
9 -13 16 -30 16 -38 0 -8 -13 6 -29 31 -30 48 -60 75 -48 45z"/>
<path d="M1348 1278 c-24 -32 -68 -111 -68 -123 0 -10 55 23 77 47 12 13 29
40 37 60 14 32 14 37 0 42 -21 8 -19 10 -46 -26z m34 -10 c-7 -7 -12 -8 -12
-2 0 14 12 26 19 19 2 -3 -1 -11 -7 -17z"/>
<path d="M664 1286 c-3 -8 -4 -22 -2 -31 2 -12 7 -7 15 14 6 18 7 31 2 31 -5
0 -12 -6 -15 -14z"/>
<path d="M694 1275 c-25 -39 -7 -43 29 -7 30 30 30 32 10 32 -13 0 -30 -11
-39 -25z"/>
<path d="M546 1249 c-12 -62 -8 -79 19 -79 23 0 25 4 25 43 0 65 -33 91 -44
36z"/>
<path d="M1100 1253 c13 -36 66 -88 98 -96 29 -7 28 -1 -10 55 -21 30 -38 46
-47 43 -8 -3 -22 2 -32 11 -18 16 -19 16 -9 -13z m55 -43 c3 -5 1 -10 -4 -10
-6 0 -11 5 -11 10 0 6 2 10 4 10 3 0 8 -4 11 -10z"/>
<path d="M1286 1251 c-9 -10 -19 -36 -22 -57 l-5 -39 26 54 c27 59 28 72 1 42z"/>
<path d="M332 1201 c22 -53 51 -87 91 -107 35 -19 34 -9 -5 51 -18 27 -37 56
-42 65 -5 9 -22 22 -37 27 l-27 11 20 -47z"/>
<path d="M716 1231 c-10 -11 -18 -25 -20 -33 -1 -7 -5 -18 -9 -24 -10 -16 66
-1 98 20 14 9 23 22 19 28 -4 5 0 14 7 19 8 5 9 9 3 9 -5 0 -31 -13 -57 -30
-60 -38 -72 -38 -27 0 21 19 28 30 19 30 -9 0 -24 -9 -33 -19z"/>
<path d="M1200 1240 c0 -11 28 -70 34 -70 9 0 -11 74 -22 78 -6 2 -12 -1 -12
-8z"/>
<path d="M414 1176 c13 -17 31 -47 39 -66 l15 -35 1 31 c1 18 -8 41 -19 54
-11 13 -20 26 -20 30 0 4 -9 10 -20 13 -18 5 -18 3 4 -27z"/>
<path d="M630 1125 c0 -39 -3 -80 -6 -92 -6 -20 -3 -23 25 -23 18 0 30 4 27 8
-3 5 -7 39 -10 77 -4 42 -12 75 -21 84 -13 14 -15 8 -15 -54z"/>
<path d="M1453 1173 c-13 -8 -23 -20 -23 -26 0 -6 -13 -25 -29 -42 -39 -41
-101 -132 -101 -147 1 -7 7 -1 15 14 8 15 25 30 37 33 44 14 89 57 118 114 35
70 30 87 -17 54z m-11 -75 c-7 -7 -12 -8 -12 -2 0 14 12 26 19 19 2 -3 -1 -11
-7 -17z"/>
<path d="M548 1143 c6 -2 18 -2 25 0 6 3 1 5 -13 5 -14 0 -19 -2 -12 -5z"/>
<path d="M227 1133 c-12 -20 135 -123 175 -123 33 0 18 20 -44 61 -35 23 -55
39 -46 36 11 -4 15 -2 12 8 -8 21 -87 35 -97 18z"/>
<path d="M1375 1124 c-11 -9 -28 -22 -38 -29 -17 -12 -41 -84 -32 -93 2 -2 13
14 24 36 11 21 32 53 46 71 30 34 30 38 0 15z"/>
<path d="M540 1000 l0 -120 25 0 25 0 0 120 0 120 -25 0 -25 0 0 -120z"/>
<path d="M345 1101 c-3 -5 3 -12 14 -16 11 -3 34 -22 50 -41 17 -19 31 -32 31
-29 0 16 -33 66 -52 79 -26 18 -35 20 -43 7z"/>
<path d="M994 1095 c-9 -24 1 -68 17 -78 24 -15 69 16 69 48 0 28 -8 34 -50
40 -20 2 -33 -1 -36 -10z"/>
<path d="M777 1088 c-23 -12 -21 -50 3 -76 34 -37 70 -22 70 29 0 39 -41 65
-73 47z"/>
<path d="M1241 970 c0 -119 0 -120 24 -120 17 0 22 5 20 18 -2 9 -4 63 -4 120
-1 95 -2 102 -21 102 -19 0 -20 -7 -19 -120z"/>
<path d="M460 930 c0 -97 1 -100 23 -100 22 0 23 3 22 100 0 97 -1 100 -22
100 -22 0 -23 -3 -23 -100z"/>
<path d="M1463 1023 c-17 -6 -16 -21 1 -25 7 -2 -20 -19 -60 -38 -75 -36 -74
-20 1 19 22 12 34 21 27 21 -7 0 -10 5 -6 11 3 6 -7 4 -22 -4 -33 -17 -76 -61
-93 -94 -14 -27 -14 -44 0 -20 7 12 23 17 55 17 51 0 135 37 114 50 -8 5 -8
10 -2 14 6 3 12 1 14 -5 2 -7 19 -1 42 15 21 14 44 26 50 27 6 0 2 4 -9 9 -22
9 -92 11 -112 3z"/>
<path d="M289 936 c82 -74 142 -95 141 -48 -1 25 -26 56 -35 42 -4 -6 0 -19 9
-29 9 -10 16 -21 16 -26 0 -4 -9 4 -20 18 -11 14 -36 35 -55 47 -19 12 -35 28
-35 35 0 16 -22 25 -61 25 -28 0 -26 -2 40 -64z m26 4 c3 -5 2 -10 -4 -10 -5
0 -13 5 -16 10 -3 6 -2 10 4 10 5 0 13 -4 16 -10z"/>
<path d="M977 986 c-23 -58 -14 -171 13 -171 17 0 102 163 94 177 -10 15 -26
-7 -43 -58 -9 -26 -21 -49 -27 -51 -17 -6 -36 55 -24 77 6 10 10 23 10 29 0
16 -17 13 -23 -3z"/>
<path d="M630 958 c0 -30 1 -31 15 -12 19 25 19 44 0 44 -10 0 -15 -10 -15
-32z"/>
<path d="M690 951 c-63 -66 -90 -201 -47 -242 20 -19 29 -20 93 -15 83 8 75
20 95 -137 10 -79 16 -97 28 -95 11 2 18 19 23 53 11 86 9 200 -4 217 -16 20
-79 38 -136 38 l-42 0 16 25 c15 23 15 27 -5 68 -12 24 -21 50 -20 58 0 8 6 2
13 -14 25 -56 85 -116 129 -128 23 -7 54 -24 70 -38 19 -18 27 -21 27 -10 0
22 -20 44 -66 72 -25 16 -52 45 -68 73 -27 49 -33 69 -16 59 15 -9 12 2 -6 30
-22 34 -41 31 -84 -14z"/>
<path d="M410 965 c0 -8 5 -15 10 -15 6 0 10 7 10 15 0 8 -4 15 -10 15 -5 0
-10 -7 -10 -15z"/>
<path d="M1086 926 c-11 -36 -31 -71 -63 -107 -48 -52 -48 -52 -18 -45 49 12
88 39 117 81 47 69 46 125 -3 125 -13 0 -22 -14 -33 -54z"/>
<path d="M350 955 c0 -2 10 -10 23 -16 20 -11 21 -11 8 4 -13 16 -31 23 -31
12z"/>
<path d="M1170 920 c0 -14 -12 -45 -25 -69 -14 -24 -23 -52 -20 -61 5 -14 -3
-18 -48 -23 -29 -3 -70 -12 -90 -21 l-37 -15 0 -120 c0 -68 4 -121 9 -121 23
0 39 34 51 106 17 111 11 104 95 97 65 -5 74 -4 94 16 34 34 26 164 -14 216
-14 19 -14 19 -15 -5z"/>
<path d="M1354 876 c-3 -8 0 -32 6 -55 7 -29 15 -39 25 -35 15 6 13 29 -6 82
-10 25 -17 28 -25 8z"/>
<path d="M553 863 c9 -2 25 -2 35 0 9 3 1 5 -18 5 -19 0 -27 -2 -17 -5z"/>
<path d="M355 784 c-23 -218 80 -424 265 -526 93 -52 166 -70 275 -70 151 1
266 50 363 157 60 66 111 160 96 175 -8 8 -19 -3 -41 -42 -65 -114 -154 -189
-268 -226 -63 -21 -199 -37 -191 -23 5 8 36 15 171 39 50 10 49 10 -30 11 -61
0 -96 -5 -145 -23 -36 -13 -74 -27 -85 -31 -13 -4 -7 5 15 25 19 17 56 38 81
47 35 13 45 21 42 34 -4 14 -10 15 -41 8 -52 -14 -111 -39 -155 -68 -49 -31
-58 -21 -15 18 29 27 164 100 211 115 18 6 23 31 7 41 -16 10 -174 -59 -240
-104 -34 -23 -65 -39 -71 -35 -6 3 -9 53 -8 122 l2 117 -29 3 -29 3 3 -88 c3
-64 9 -93 20 -107 13 -14 8 -13 -17 5 -46 32 -107 128 -133 208 -16 51 -21 91
-21 174 0 79 -3 107 -12 107 -8 0 -15 -24 -20 -66z"/>
<path d="M538 715 c3 -124 3 -125 27 -125 24 0 24 1 27 125 l3 125 -30 0 -30
0 3 -125z"/>
<path d="M1246 744 c-3 -48 -5 -89 -3 -91 13 -12 35 52 39 110 3 57 2 67 -13
67 -13 0 -17 -15 -23 -86z"/>
<path d="M463 813 c9 -2 25 -2 35 0 9 3 1 5 -18 5 -19 0 -27 -2 -17 -5z"/>
<path d="M455 675 l0 -115 28 0 27 0 0 115 0 115 -27 0 -28 0 0 -115z"/>
<path d="M1460 780 c-81 -10 -150 -52 -150 -93 0 -17 4 -15 38 11 42 33 82 56
88 49 2 -2 -18 -18 -45 -35 -26 -17 -54 -38 -61 -47 -21 -25 34 -19 78 9 38
25 119 103 111 109 -2 2 -29 0 -59 -3z"/>
<path d="M620 660 c0 -6 35 -10 86 -10 54 0 83 4 79 10 -3 6 -42 10 -86 10
-46 0 -79 -4 -79 -10z"/>
<path d="M1055 660 c-4 -6 25 -10 79 -10 51 0 86 4 86 10 0 6 -33 10 -79 10
-44 0 -83 -4 -86 -10z"/>
<path d="M1255 620 c-42 -43 -137 -97 -237 -134 -40 -15 -64 -30 -67 -41 -2
-15 2 -17 30 -11 94 19 256 122 309 197 30 42 11 36 -35 -11z"/>
<path d="M628 585 c-3 -41 -1 -45 19 -45 21 0 23 5 23 45 0 38 -3 45 -19 45
-15 0 -20 -9 -23 -45z"/>
<path d="M748 618 c-1 -7 -2 -32 -2 -55 -1 -35 2 -43 17 -43 14 0 17 9 17 55
0 42 -3 55 -15 55 -8 0 -16 -6 -17 -12z"/>
<path d="M1060 579 c0 -36 4 -49 13 -47 6 3 14 15 15 29 2 13 8 28 13 34 12
12 12 28 -1 20 -5 -3 -10 -1 -10 4 0 6 -7 11 -15 11 -11 0 -15 -12 -15 -51z"/>
<path d="M1160 624 c0 -6 6 -17 13 -23 11 -8 18 -6 32 9 18 19 17 20 -3 20
-12 0 -22 -6 -22 -12 0 -9 -4 -8 -10 2 -5 8 -10 10 -10 4z"/>
<path d="M1325 611 c-6 -5 -19 -11 -30 -14 -19 -4 -19 -5 2 -6 12 0 34 -14 50
-30 21 -20 47 -32 89 -41 32 -6 69 -14 82 -17 12 -3 22 0 22 6 0 18 -59 78
-94 95 -37 17 -106 21 -121 7z m105 -11 c11 -8 7 -9 -15 -5 l-30 5 32 -12 c61
-25 53 -34 -12 -13 -54 16 -62 21 -43 27 34 9 51 9 68 -2z"/>
<path d="M548 569 c15 -6 30 -5 40 1 13 7 8 9 -23 9 -35 0 -37 -1 -17 -10z"/>
<path d="M1258 553 c-23 -25 -24 -83 -3 -83 20 0 27 19 23 65 -3 36 -3 37 -20
18z"/>
<path d="M463 543 c9 -2 25 -2 35 0 9 3 1 5 -18 5 -19 0 -27 -2 -17 -5z"/>
<path d="M633 523 c9 -2 23 -2 30 0 6 3 -1 5 -18 5 -16 0 -22 -2 -12 -5z"/>
<path d="M450 515 c0 -12 40 -84 50 -90 6 -4 10 13 10 44 0 50 -1 51 -30 51
-16 0 -30 -2 -30 -5z"/>
<path d="M748 466 c3 -34 7 -43 18 -39 20 8 15 77 -6 81 -12 2 -14 -6 -12 -42z"/>
<path d="M624 484 c3 -9 6 -42 6 -75 0 -57 1 -59 20 -49 17 9 20 21 20 75 0
63 -1 65 -26 65 -20 0 -25 -4 -20 -16z"/>
<path d="M920 452 c0 -5 7 -17 16 -28 14 -17 15 -17 10 -1 -3 10 -6 23 -6 28
0 5 -4 9 -10 9 -5 0 -10 -4 -10 -8z"/>
<path d="M1077 436 c-48 -13 -107 -59 -94 -72 4 -4 19 -1 34 6 42 19 119 42
108 31 -6 -5 -38 -20 -73 -33 -35 -13 -63 -28 -63 -33 1 -17 83 -17 126 -1 22
9 61 36 85 61 42 43 43 45 20 45 -14 0 -41 2 -60 5 -19 2 -57 -2 -83 -9z"/>
<path d="M910 341 c0 -15 15 -21 38 -14 32 8 27 23 -8 23 -16 0 -30 -4 -30 -9z"/>
</g>
</svg>
